HIERARCHY
ROOT joint_Root
{
	OFFSET 0.0 0.0 0.0
	CHANNELS 6 Xposition Yposition Zposition Zrotation Xrotation Yrotation 
	JOINT Hips
	{
		OFFSET -17.1583 93.1646 452.98
		CHANNELS 6 Xposition Yposition Zposition Zrotation Xrotation Yrotation 
		JOINT Spine
		{
			OFFSET 15.7357 0.0 0.0
			CHANNELS 6 Xposition Yposition Zposition Zrotation Xrotation Yrotation 
			JOINT Chest
			{
				OFFSET 8.98455 -0.406207 0.0
				CHANNELS 6 Xposition Yposition Zposition Zrotation Xrotation Yrotation 
				JOINT Neck
				{
					OFFSET 16.3773 0.0 0.0
					CHANNELS 6 Xposition Yposition Zposition Zrotation Xrotation Yrotation 
					JOINT Head
					{
						OFFSET 6.45672 0.0 0.0
						CHANNELS 6 Xposition Yposition Zposition Zrotation Xrotation Yrotation 
						End Site
						{
							OFFSET 0.0 0.0 0.0
						}
					}
				}
				JOINT Shoulder_L
				{
					OFFSET 12.9942 -0.242716 4.98039
					CHANNELS 6 Xposition Yposition Zposition Zrotation Xrotation Yrotation 
					JOINT UpperArm_L
					{
						OFFSET 5.34809 0.0 0.0
						CHANNELS 6 Xposition Yposition Zposition Zrotation Xrotation Yrotation 
						JOINT LowerArm_L
						{
							OFFSET 24.3286 1.87007e-05 0.0
							CHANNELS 6 Xposition Yposition Zposition Zrotation Xrotation Yrotation 
							JOINT Hand_L
							{
								OFFSET 22.2916 0.0 0.0
								CHANNELS 6 Xposition Yposition Zposition Zrotation Xrotation Yrotation 
								End Site
								{
									OFFSET 0.0 0.0 0.0
								}
							}
						}
					}
				}
				JOINT Shoulder_R
				{
					OFFSET 12.9945 -0.242716 -4.98039
					CHANNELS 6 Xposition Yposition Zposition Zrotation Xrotation Yrotation 
					JOINT UpperArm_R
					{
						OFFSET -5.34813 0.0 0.0
						CHANNELS 6 Xposition Yposition Zposition Zrotation Xrotation Yrotation 
						JOINT LowerArm_R
						{
							OFFSET -24.3289 0.000322201 0.0
							CHANNELS 6 Xposition Yposition Zposition Zrotation Xrotation Yrotation 
							JOINT Hand_R
							{
								OFFSET -22.2915 -0.000108084 0.0
								CHANNELS 6 Xposition Yposition Zposition Zrotation Xrotation Yrotation 
								End Site
								{
									OFFSET 0.0 0.0 0.0
								}
							}
						}
					}
				}
			}
		}
		JOINT UpperLeg_L
		{
			OFFSET -2.19248 -6.46944 0.0
			CHANNELS 6 Xposition Yposition Zposition Zrotation Xrotation Yrotation 
			JOINT LowerLeg_L
			{
				OFFSET 39.0811 0.0 -1.23785e-05
				CHANNELS 6 Xposition Yposition Zposition Zrotation Xrotation Yrotation 
				JOINT Foot_L
				{
					OFFSET 40.9854 0.0 -1.26872e-05
					CHANNELS 6 Xposition Yposition Zposition Zrotation Xrotation Yrotation 
					JOINT Toes_L
					{
						OFFSET 11.7543 0.0 0.0
						CHANNELS 6 Xposition Yposition Zposition Zrotation Xrotation Yrotation 
						End Site
						{
							OFFSET 0.0 0.0 0.0
						}
					}
				}
			}
		}
		JOINT UpperLeg_R
		{
			OFFSET -2.19251 6.46944 0.0
			CHANNELS 6 Xposition Yposition Zposition Zrotation Xrotation Yrotation 
			JOINT LowerLeg_R
			{
				OFFSET -39.0811 -0.00228153 -0.0401928
				CHANNELS 6 Xposition Yposition Zposition Zrotation Xrotation Yrotation 
				JOINT Foot_R
				{
					OFFSET -40.9854 0.0 0.0
					CHANNELS 6 Xposition Yposition Zposition Zrotation Xrotation Yrotation 
					JOINT Toes_R
					{
						OFFSET -11.7543 0.0 0.0
						CHANNELS 6 Xposition Yposition Zposition Zrotation Xrotation Yrotation 
						End Site
						{
							OFFSET 0.0 0.0 0.0
						}
					}
				}
			}
		}
	}
}
MOTION
Frames:	8
Frame Time:	0.0333333
0.000000 0.000000 0.000000 0.000000 0.000000 -0.000000 -5.192180 91.679500 -1.319670 84.411500 3.129270 7.069780 15.735700 0.000005 -0.000001 78.012300 85.633000 -76.581900 8.984550 -0.406207 -0.000000 0.803493 -1.900280 2.872210 16.377300 -0.000001 -0.000001 12.548100 0.007054 4.601680 6.456720 -0.000001 -0.000000 -4.645370 -2.532660 14.533900 12.994200 -0.242716 4.980390 -93.035700 8.697550 -70.674100 5.348090 -0.000007 -0.000001 -70.088500 29.812200 -1.617830 24.328600 0.000019 0.000005 11.900800 28.137900 -24.078900 22.291600 -0.000001 0.000005 -5.483340 5.097340 5.174580 12.994500 -0.242716 -4.980390 86.534900 8.641920 -68.051700 -5.348130 -0.000001 -0.000004 -65.960200 -11.388800 -9.756400 -24.328900 0.000322 -0.000009 19.647400 -20.512600 -134.464000 -22.291500 -0.000108 -0.000004 58.870000 5.680490 -22.452500 -2.192480 -6.469440 -0.000000 -172.988000 6.939000 -2.514460 39.081100 -0.000007 -0.000012 0.420988 -0.735674 29.781300 40.985400 -0.000006 -0.000013 -1.138390 2.104810 -76.366500 11.754300 -0.000000 0.000003 -0.000405 0.174183 -9.511670 -2.192510 6.469440 -0.000001 -170.429000 13.740000 -174.443000 -39.081100 -0.002282 -0.040193 0.145082 -0.492384 16.060900 -40.985400 0.000008 0.000006 7.242950 3.642240 -71.589400 -11.754300 -0.000006 -0.000006 -0.009789 0.269722 -5.615730
0.000000 0.000000 0.000000 0.000000 0.000000 -0.000000 -5.208570 91.667400 -1.328810 84.369300 3.108220 7.127890 15.735700 0.000005 -0.000001 78.462900 85.629100 -77.049700 8.984550 -0.406207 -0.000000 0.823846 -1.833310 2.837540 16.377300 -0.000001 -0.000001 12.625000 -0.034533 4.721720 6.456720 -0.000001 -0.000000 -4.589790 -2.615550 14.648100 12.994200 -0.242716 4.980390 -93.035400 8.690530 -70.661400 5.348090 -0.000007 -0.000001 -70.064200 29.804300 -1.666420 24.328600 0.000019 0.000005 11.883400 28.055700 -24.104200 22.291600 -0.000001 0.000005 -5.464090 5.097830 5.163430 12.994500 -0.242716 -4.980390 86.538900 8.658700 -68.112900 -5.348130 -0.000001 -0.000004 -66.168800 -12.001800 -9.837450 -24.328900 0.000322 -0.000009 18.944900 -19.408500 -134.071000 -22.291500 -0.000108 -0.000004 59.442700 5.681890 -21.501400 -2.192480 -6.469440 -0.000000 -172.955000 6.960230 -2.505090 39.081100 -0.000007 -0.000012 0.428642 -0.746310 29.871900 40.985400 -0.000006 -0.000013 -1.151470 2.081080 -76.397600 11.754300 -0.000000 0.000003 -0.000280 0.172218 -9.591490 -2.192510 6.469440 -0.000001 -170.370000 13.712800 -174.430000 -39.081100 -0.002282 -0.040193 0.146659 -0.496060 16.116300 -40.985400 0.000008 0.000006 7.263540 3.619240 -71.584200 -11.754300 -0.000006 -0.000006 -0.009841 0.270113 -5.599740
0.000000 0.000000 0.000000 0.000000 0.000000 -0.000000 -5.234540 91.659400 -1.335840 84.364800 3.201600 7.201380 15.735700 0.000005 -0.000001 78.668700 85.620400 -77.290900 8.984550 -0.406207 -0.000000 0.846230 -1.803550 2.766860 16.377300 -0.000001 -0.000001 12.664200 -0.104174 4.741220 6.456720 -0.000001 -0.000000 -4.548630 -2.766780 14.855400 12.994200 -0.242716 4.980390 -93.033600 8.674780 -70.639900 5.348090 -0.000007 -0.000001 -70.012000 29.842200 -1.718140 24.328600 0.000019 0.000005 11.949300 28.107500 -24.189800 22.291600 -0.000001 0.000005 -5.465380 5.097430 5.172440 12.994500 -0.242716 -4.980390 86.554000 8.603100 -68.072800 -5.348130 -0.000001 -0.000004 -66.947000 -13.324600 -9.947780 -24.328900 0.000322 -0.000009 17.242200 -17.259500 -133.710000 -22.291500 -0.000108 -0.000004 59.536900 5.680370 -19.740500 -2.192480 -6.469440 -0.000000 -172.940000 7.058670 -2.484550 39.081100 -0.000007 -0.000012 0.423527 -0.736022 29.918400 40.985400 -0.000006 -0.000013 -1.174610 2.086100 -76.395600 11.754300 -0.000000 0.000003 -0.000309 0.172668 -9.573210 -2.192510 6.469440 -0.000001 -170.361000 13.724600 -174.389000 -39.081100 -0.002282 -0.040193 0.146573 -0.494786 16.146400 -40.985400 0.000008 0.000006 7.265460 3.544350 -71.531700 -11.754300 -0.000006 -0.000006 -0.009430 0.266994 -5.727280
0.000000 0.000000 0.000000 0.000000 0.000000 -0.000000 -5.240680 91.653900 -1.349790 84.351300 3.269850 7.193510 15.735700 0.000005 -0.000001 78.593900 85.633400 -77.235400 8.984550 -0.406207 -0.000000 0.818064 -1.808780 2.727930 16.377300 -0.000001 -0.000001 12.720700 -0.140659 4.726120 6.456720 -0.000001 -0.000000 -4.554640 -2.887090 14.901500 12.994200 -0.242716 4.980390 -93.040500 8.696450 -70.643400 5.348090 -0.000007 -0.000001 -69.964700 29.799400 -1.686150 24.328600 0.000019 0.000005 11.966400 28.072600 -24.245800 22.291600 -0.000001 0.000005 -5.437170 5.100470 5.102970 12.994500 -0.242716 -4.980390 86.550600 8.594190 -68.032600 -5.348130 -0.000001 -0.000004 -67.572400 -14.168600 -10.131800 -24.328900 0.000322 -0.000009 13.758300 -13.651000 -133.945000 -22.291500 -0.000108 -0.000004 59.582100 5.663280 -16.452300 -2.192480 -6.469440 -0.000000 -172.918000 7.110250 -2.544220 39.081100 -0.000007 -0.000012 0.426904 -0.740607 29.961300 40.985400 -0.000006 -0.000013 -1.164030 2.154800 -76.367100 11.754300 -0.000000 0.000003 -0.000288 0.172342 -9.586450 -2.192510 6.469440 -0.000001 -170.344000 13.786400 -174.434000 -39.081100 -0.002282 -0.040193 0.148213 -0.499047 16.189400 -40.985400 0.000008 0.000006 7.275660 3.556620 -71.571700 -11.754300 -0.000006 -0.000006 -0.009702 0.269062 -5.642720
0.000000 0.000000 0.000000 0.000000 0.000000 -0.000000 -5.254050 91.654800 -1.346680 84.358500 3.322290 7.262730 15.735700 0.000005 -0.000001 78.618500 85.623500 -77.278600 8.984550 -0.406207 -0.000000 0.838039 -1.807670 2.691020 16.377300 -0.000001 -0.000001 12.685900 -0.182592 4.658780 6.456720 -0.000001 -0.000000 -4.503310 -2.941930 14.866900 12.994200 -0.242716 4.980390 -93.044900 8.710380 -70.646100 5.348090 -0.000007 -0.000001 -69.919000 29.865100 -1.661280 24.328600 0.000019 0.000005 11.844800 27.864600 -24.166800 22.291600 -0.000001 0.000005 -5.398050 5.101840 5.071430 12.994500 -0.242716 -4.980390 86.549400 8.587250 -68.010200 -5.348130 -0.000001 -0.000004 -68.014800 -14.663300 -10.346400 -24.328900 0.000322 -0.000009 8.457490 -8.519000 -134.892000 -22.291500 -0.000108 -0.000004 59.873800 5.608170 -11.843800 -2.192480 -6.469440 -0.000000 -172.928000 7.105140 -2.467000 39.081100 -0.000007 -0.000012 0.430991 -0.747877 29.955300 40.985400 -0.000006 -0.000013 -1.159860 2.192030 -76.433400 11.754300 -0.000000 0.000003 -0.000345 0.173243 -9.549860 -2.192510 6.469440 -0.000001 -170.358000 13.830000 -174.350000 -39.081100 -0.002282 -0.040193 0.147066 -0.496158 16.156600 -40.985400 0.000008 0.000006 7.276090 3.512370 -71.563500 -11.754300 -0.000006 -0.000006 -0.009545 0.267877 -5.691180
0.000000 0.000000 0.000000 0.000000 0.000000 -0.000000 -5.248810 91.647900 -1.338790 84.371300 3.384470 7.297880 15.735700 0.000005 -0.000001 78.582700 85.623700 -77.254500 8.984550 -0.406207 -0.000000 0.836297 -1.812260 2.667730 16.377300 -0.000001 -0.000001 12.675100 -0.191841 4.593370 6.456720 -0.000001 -0.000000 -4.553100 -2.951200 14.691000 12.994200 -0.242716 4.980390 -93.047600 8.718100 -70.645800 5.348090 -0.000007 -0.000001 -69.906900 29.848000 -1.649410 24.328600 0.000019 0.000005 11.831700 27.967800 -24.069900 22.291600 -0.000001 0.000005 -5.478330 5.100090 5.111720 12.994500 -0.242716 -4.980390 86.538900 8.597480 -67.973000 -5.348130 -0.000001 -0.000004 -68.408800 -15.394700 -10.640500 -24.328900 0.000322 -0.000009 1.668650 -1.716920 -135.799000 -22.291500 -0.000108 -0.000004 60.556600 5.550550 -8.732510 -2.192480 -6.469440 -0.000000 -172.941000 7.154980 -2.464110 39.081100 -0.000007 -0.000012 0.424152 -0.735247 29.981000 40.985400 -0.000006 -0.000013 -1.151320 2.222000 -76.392700 11.754300 -0.000000 0.000003 -0.000285 0.172289 -9.588600 -2.192510 6.469440 -0.000001 -170.393000 13.877900 -174.355000 -39.081100 -0.002282 -0.040193 0.148558 -0.498718 16.236100 -40.985400 0.000008 0.000006 7.271910 3.521410 -71.594600 -11.754300 -0.000006 -0.000006 -0.009686 0.268946 -5.647440
0.000000 0.000000 0.000000 0.000000 0.000000 -0.000000 -5.254710 91.646200 -1.350760 84.360600 3.456230 7.287430 15.735700 0.000005 -0.000001 78.337300 85.633600 -77.001200 8.984550 -0.406207 -0.000000 0.809943 -1.845750 2.683280 16.377300 -0.000001 -0.000001 12.599900 -0.195263 4.476260 6.456720 -0.000001 -0.000000 -4.526770 -2.919980 14.498900 12.994200 -0.242716 4.980390 -93.069100 8.743560 -70.571500 5.348090 -0.000007 -0.000001 -69.851000 29.827500 -1.647240 24.328600 0.000019 0.000005 11.875300 28.153600 -24.020900 22.291600 -0.000001 0.000005 -5.571980 5.104410 5.012310 12.994500 -0.242716 -4.980390 86.555900 8.528210 -67.911200 -5.348130 -0.000001 -0.000004 -68.896800 -16.201000 -10.938200 -24.328900 0.000322 -0.000009 -4.332560 4.497110 -135.986000 -22.291500 -0.000108 -0.000004 61.313900 5.495600 -6.357960 -2.192480 -6.469440 -0.000000 -172.932000 7.195330 -2.496640 39.081100 -0.000007 -0.000012 0.431868 -0.747833 30.007200 40.985400 -0.000006 -0.000013 -1.145590 2.258710 -76.446600 11.754300 -0.000000 0.000003 -0.000372 0.173670 -9.532490 -2.192510 6.469440 -0.000001 -170.371000 13.903700 -174.381000 -39.081100 -0.002282 -0.040193 0.148456 -0.498227 16.240500 -40.985400 0.000008 0.000006 7.263040 3.458900 -71.614400 -11.754300 -0.000006 -0.000006 -0.010087 0.271957 -5.524320
0.000000 0.000000 0.000000 0.000000 0.000000 -0.000000 -5.257170 91.643400 -1.339410 84.353300 3.444030 7.312790 15.735700 0.000005 -0.000001 78.465900 85.638500 -77.136300 8.984550 -0.406207 -0.000000 0.803930 -1.824290 2.669990 16.377300 -0.000001 -0.000001 12.599800 -0.159086 4.365790 6.456720 -0.000001 -0.000000 -4.543640 -2.864090 14.407800 12.994200 -0.242716 4.980390 -93.089500 8.783360 -70.533100 5.348090 -0.000007 -0.000001 -69.785700 29.728400 -1.605510 24.328600 0.000019 0.000005 11.897900 28.225100 -24.012900 22.291600 -0.000001 0.000005 -5.466320 5.101540 5.078350 12.994500 -0.242716 -4.980390 86.540900 8.548540 -67.871300 -5.348130 -0.000001 -0.000004 -69.237300 -17.073000 -11.089500 -24.328900 0.000322 -0.000009 -8.314750 8.575600 -135.577000 -22.291500 -0.000108 -0.000004 61.696500 5.466750 -5.249900 -2.192480 -6.469440 -0.000000 -172.926000 7.180220 -2.480080 39.081100 -0.000007 -0.000012 0.430139 -0.744390 30.022200 40.985400 -0.000006 -0.000013 -1.144930 2.253310 -76.426200 11.754300 -0.000000 0.000003 -0.000361 0.173500 -9.539400 -2.192510 6.469440 -0.000001 -170.377000 13.964100 -174.334000 -39.081100 -0.002282 -0.040193 0.148404 -0.498650 16.221900 -40.985400 0.000008 0.000006 7.275590 3.498450 -71.604700 -11.754300 -0.000006 -0.000006 -0.009547 0.267887 -5.690760
